<svg xmlns="http://www.w3.org/2000/svg" viewBox="0 0 120.05 93.94"><defs><style>.cls-1{fill:#253139;}</style></defs><title>abihome-logo</title><g id="Ebene_2" data-name="Ebene 2"><g id="Ebene_1-2" data-name="Ebene 1"><path class="cls-1" d="M115.94,93.94a4.12,4.12,0,0,1-4.12-4.12V35.76l-51.47-27L8.23,36.1V89.82a4.12,4.12,0,1,1-8.23,0V33.61A4.13,4.13,0,0,1,2.2,30L58.43.47a4.12,4.12,0,0,1,3.83,0l55.59,29.16a4.11,4.11,0,0,1,2.2,3.64V89.82A4.12,4.12,0,0,1,115.94,93.94Z"/><path class="cls-1" d="M40.63,81.2a25.07,25.07,0,0,1-5.7,3.43,15.78,15.78,0,0,1-6.17,1.15,11.63,11.63,0,0,1-5.49-1.24,9,9,0,0,1-3.64-3.34,8.64,8.64,0,0,1-1.28-4.59,8.19,8.19,0,0,1,2.11-5.68,10.57,10.57,0,0,1,5.8-3.15c.52-.12,1.8-.39,3.84-.8s3.79-.8,5.25-1.15,3-.77,4.74-1.26a8.5,8.5,0,0,0-1.29-4.72c-.76-1-2.35-1.5-4.74-1.5a10,10,0,0,0-4.66.86,7.68,7.68,0,0,0-2.68,2.59,24.41,24.41,0,0,1-1.58,2.27,2.54,2.54,0,0,1-2,.56,3.5,3.5,0,0,1-2.37-.88,2.89,2.89,0,0,1-1-2.25,6.87,6.87,0,0,1,1.52-4.16A10.91,10.91,0,0,1,26.05,54a21.39,21.39,0,0,1,8-1.3A22.66,22.66,0,0,1,42.47,54a7.8,7.8,0,0,1,4.33,4,17.41,17.41,0,0,1,1.27,7.26c0,1.9,0,3.52,0,4.85s0,2.81,0,4.43a16.23,16.23,0,0,0,.76,4.78,15.37,15.37,0,0,1,.76,3.2,3,3,0,0,1-1.18,2.27,3.9,3.9,0,0,1-2.66,1,3.55,3.55,0,0,1-2.47-1.18A17.14,17.14,0,0,1,40.63,81.2Zm-.54-11.76a40.78,40.78,0,0,1-5.19,1.39c-2.27.48-3.84.84-4.71,1.07a6.31,6.31,0,0,0-2.5,1.34A3.4,3.4,0,0,0,26.5,76a4.09,4.09,0,0,0,1.4,3.14,5.18,5.18,0,0,0,3.66,1.29,9.56,9.56,0,0,0,4.44-1,7.07,7.07,0,0,0,3-2.73c.74-1.23,1.1-3.25,1.1-6.07Z"/><path class="cls-1" d="M63,45.32v12.4a19.08,19.08,0,0,1,4.67-3.64,12.48,12.48,0,0,1,5.89-1.27,13,13,0,0,1,7.1,1.92,12.64,12.64,0,0,1,4.73,5.57,20.49,20.49,0,0,1,1.68,8.64,23,23,0,0,1-.94,6.77,16,16,0,0,1-2.72,5.34,12.3,12.3,0,0,1-4.33,3.49,12.55,12.55,0,0,1-5.61,1.24A13.31,13.31,0,0,1,70,85.33a10.56,10.56,0,0,1-2.81-1.17,12.2,12.2,0,0,1-2-1.51A31.1,31.1,0,0,1,63,80.33v.81a4.9,4.9,0,0,1-1.1,3.46,3.63,3.63,0,0,1-2.8,1.18,3.46,3.46,0,0,1-2.75-1.18,5.14,5.14,0,0,1-1-3.46V45.67a6,6,0,0,1,1-3.73,3.35,3.35,0,0,1,2.78-1.26A3.57,3.57,0,0,1,62,41.88,5.23,5.23,0,0,1,63,45.32Zm.39,24.12c0,3.24.74,5.72,2.22,7.46a7.26,7.26,0,0,0,5.81,2.6,6.69,6.69,0,0,0,5.28-2.66q2.22-2.67,2.22-7.63A15.08,15.08,0,0,0,78,63.67a8.09,8.09,0,0,0-2.62-3.58,6.46,6.46,0,0,0-4-1.27,7.06,7.06,0,0,0-4.13,1.27,8.34,8.34,0,0,0-2.86,3.66A14.24,14.24,0,0,0,63.39,69.44Z"/><path class="cls-1" d="M97.69,49a4.3,4.3,0,0,1-2.9-1A3.71,3.71,0,0,1,93.59,45a3.66,3.66,0,0,1,1.23-2.84A4.12,4.12,0,0,1,97.69,41a4.3,4.3,0,0,1,2.8,1,3.63,3.63,0,0,1,1.22,3,3.72,3.72,0,0,1-1.19,2.93A4.16,4.16,0,0,1,97.69,49Zm4,8.39V80.84a5.27,5.27,0,0,1-1.16,3.69,3.88,3.88,0,0,1-3,1.25,3.67,3.67,0,0,1-2.9-1.28,5.41,5.41,0,0,1-1.11-3.66V57.6A5.26,5.26,0,0,1,94.7,54a3.75,3.75,0,0,1,2.9-1.22,3.92,3.92,0,0,1,3,1.22A4.77,4.77,0,0,1,101.71,57.37Z"/></g></g></svg>